
<svg xmlns="http://www.w3.org/2000/svg" height="47.837" width="47.514"><path d="M7.653 47.245c0-.326.918-1.76 2.04-3.188 1.855-2.358 1.892-2.678.398-3.514-.904-.506-2.716-3.347-4.028-6.313-1.312-2.966-3.04-5.393-3.839-5.393-2.236 0-2.976-2.025-1.338-3.662 1.184-1.184 5.407-1.507 21.65-1.654l20.178-.184-.28-10.5c-.26-9.665-.437-10.5-2.24-10.5-1.414 0-2.148.92-2.635 3.3-.962 4.704-1.557 4.909-4.917 1.69-3.582-3.432-3.692-4.167-.74-4.958A268.028 268.028 0 0 0 37.87.653c6.03-1.808 6.783-.478 6.783 11.978 0 8.611.318 10.9 1.736 12.467 1.663 1.838 1.618 2.005-1.059 3.955-1.537 1.12-3.497 3.791-4.355 5.937-.859 2.145-2.412 4.497-3.452 5.225-1.85 1.296-1.847 1.382.119 3.881 2.47 3.14 2.507 3.74.23 3.74-1.06 0-2.24-1.213-2.913-3l-1.133-3H13.48l-1.133 3c-.674 1.787-1.852 3-2.913 3-.98 0-1.78-.266-1.78-.591zm29.245-9.158c.855-.963 2.252-3.438 3.104-5.5l1.548-3.75h-3.448c-3.166 0-3.45.246-3.45 3v3h-15v-6H5.755l1.55 3.75c2.912 7.054 3.354 7.25 16.349 7.25 9.874 0 11.931-.272 13.245-1.75zm-4.245-9.25v-4h-11v8h11v-4zm-17.25-2.735c-2.613-.206-6.888-.206-9.5 0-2.613.206-.475.374 4.75.374s7.362-.168 4.75-.374zm28.017.02c-1.502-.228-4.202-.232-6-.01-1.797.223-.567.41 2.733.415 3.3.006 4.77-.176 3.267-.405zM35.194 4.903c-.363-.586-1.138-1.066-1.723-1.066-.663 0-.587.574.202 1.524 1.371 1.653 2.597 1.284 1.52-.458zm-4.541 7.934c.588-1.1 1.52-2 2.07-2 .643 0 .618.713-.07 2-.59 1.1-1.52 2-2.07 2-.644 0-.619-.714.07-2zm-5-.76c0-1.093 4.085-3.488 4.774-2.8.319.32-.288 1.237-1.347 2.038-2.147 1.624-3.427 1.909-3.427.762zm-1-4.133c0-1.11 3.076-2.364 3.864-1.576.318.318-.084.996-.893 1.508-1.87 1.182-2.971 1.208-2.971.068z" fill="#5d6b82"/></svg>
