
<svg xmlns="http://www.w3.org/2000/svg" height="48" width="48"><path d="M13.439 45.302C8.258 42.58 5.867 38.695 5.867 33c0-6.008 2.485-9.743 8.299-12.474 2.445-1.15 4.201-2.665 4.201-3.628 0-.91.675-2.213 1.5-2.898 1.877-1.558 4.5.263 4.5 3.122 0 1.551.762 1.878 4.378 1.878 2.671 0 4.863.585 5.622 1.5 2.038 2.455-.518 4.5-5.622 4.5-2.408 0-4.378.45-4.378 1 0 .553 2.626 1 5.878 1 3.486 0 6.297.509 6.909 1.25.567.688 2.258 4.322 3.76 8.077 2.491 6.235 2.59 6.965 1.14 8.414-2.033 2.034-3.71.75-6.184-4.735-.993-2.203-2.075-3.996-2.404-3.984-.33.012-1.274 1.447-2.099 3.189-3.15 6.65-11.48 9.48-17.928 6.091zm14.025-3.978c1.53-1.553 3.084-4.061 3.452-5.574.667-2.743.655-2.75-4.74-2.75-2.975 0-5.949-.54-6.609-1.2-.66-.66-1.2-3.36-1.2-6 0-5.922-1.477-6.222-6.764-1.377-3.359 3.078-3.736 3.927-3.736 8.42 0 5.242 2.515 9.284 7 11.254 3.605 1.583 9.606.262 12.597-2.773zm13.903 1.95c0-.398-1.196-3.773-2.658-7.5L36.051 29H22.367v-3c0-2.97.056-3 5.5-3 3.025 0 5.5-.45 5.5-1s-2.475-1-5.5-1c-5.444 0-5.5-.03-5.5-3 0-1.65-.45-3-1-3-.583 0-1 3.333-1 8v8H34.142l2.763 6.5c1.52 3.575 3.145 6.5 3.612 6.5.468 0 .85-.326.85-.725zM18.022 9.172c-2.15-2.377-2.095-4.462.174-6.516C20.573.504 22.66.56 24.712 2.829c2.151 2.377 2.096 4.462-.173 6.516-2.377 2.151-4.463 2.095-6.517-.174zM23.867 6c0-1.833-.601-2.585-2.254-2.82-1.352-.192-2.496.308-2.857 1.25-.996 2.595.4 4.739 2.857 4.39 1.653-.235 2.254-.987 2.254-2.82z" fill="#5d6b82"/></svg>
