
<svg xmlns="http://www.w3.org/2000/svg" height="48" width="48"><path d="M4.203 42.093c0-.833-.888-1.5-2-1.5-2.762 0-2.633-3.854.5-15 1.508-5.363 2.5-11.492 2.5-15.446 0-3.702.435-6.554 1-6.554.55 0 1 .675 1 1.5 0 1.275 2.556 1.5 17 1.5 14.445 0 17-.225 17-1.5 0-.825.45-1.5 1-1.5.565 0 1 2.852 1 6.554 0 3.954.992 10.083 2.5 15.446 3.134 11.146 3.263 15 .5 15-1.11 0-2 .667-2 1.5 0 .825-.45 1.5-1 1.5s-1-.675-1-1.5c0-1.278-2.666-1.5-18-1.5-15.333 0-18 .222-18 1.5 0 .825-.45 1.5-1 1.5s-1-.675-1-1.5zm42-5c0-1.288-3.11-1.5-22-1.5-18.888 0-22 .212-22 1.5s3.112 1.5 22 1.5c18.89 0 22-.212 22-1.5zm-1.798-9l-1.53-5.5H5.532l-1.531 5.5-1.531 5.5h43.465l-1.53-5.5zm-33.202-8.229c-.825-.314-1.787-1.01-2.138-1.549-.35-.538-1.138-.669-1.75-.29-2.146 1.326-1.08 2.567 2.138 2.49 1.788-.044 2.575-.337 1.75-.65zm16 0c-.825-.314-1.837-1.066-2.25-1.67-.545-.8-.954-.8-1.5 0-.412.604-1.425 1.356-2.25 1.67-.825.314.525.571 3 .571s3.825-.257 3-.57zm15-.212c0-1.44-2.14-2.441-2.861-1.337-.351.538-1.314 1.235-2.139 1.55-.825.313-.037.606 1.75.65 1.788.043 3.25-.345 3.25-.863zm-21.5-4.059c0-2.227-.464-2.533-4.259-2.808-4.474-.323-6.097 1.135-4.857 4.366.44 1.147 1.721 1.477 4.857 1.25 3.795-.274 4.26-.58 4.26-2.808zm16 0c0-2.227-.464-2.533-4.259-2.808-4.474-.323-6.097 1.135-4.857 4.366.44 1.147 1.721 1.477 4.857 1.25 3.795-.274 4.26-.58 4.26-2.808zm-27.5-1.954c0-1.443.918-2.127 3.5-2.612 5.392-1.011 10.5.26 10.5 2.612 0 1.075.45 1.954 1 1.954s1-.88 1-1.954c0-1.443.918-2.127 3.5-2.612 5.392-1.011 10.5.26 10.5 2.612 0 1.075.45 1.954 1 1.954s1-1.575 1-3.5v-3.5h-34v3.5c0 1.925.45 3.5 1 3.5s1-.88 1-1.954z" fill="#5d6b82"/></svg>
