
<svg xmlns="http://www.w3.org/2000/svg" height="48" width="48"><path d="M26.229 41.453c2.544-2.894 5.771-10 5.771-12.71 0-1.944-.512-2.54-2.184-2.54-1.202 0-4.802-.734-8-1.631L16 22.94V9.52l3.75-1.121c2.063-.617 7.028-1.682 11.034-2.368 6.605-1.13 7.601-1.075 10.697.592 6.959 3.748 8.13 12.34 2.409 17.683-2.794 2.61-5.89 11.34-5.89 16.607 0 2.158-.386 2.29-6.655 2.29-6.257 0-6.563-.104-5.116-1.75zm10.74-6c.707-3.162 1.502-6.312 1.765-7 .308-.803-.452-1.25-2.127-1.25-2.064 0-2.607.486-2.607 2.33 0 1.283-1.064 4.433-2.364 7l-2.364 4.67h3.205c3.086 0 3.253-.213 4.491-5.75zm5.476-12.5c1.407-1.237 2.8-3.6 3.095-5.25.705-3.932-2.542-9.211-6.234-10.138-2.872-.72-14.074.84-18.725 2.607-2.506.953-2.666 1.373-2.383 6.277l.302 5.254 6.5 1.682c9.372 2.425 14.339 2.302 17.445-.432zm-9.222-2.306c-4.429-3.102-1.617-10.444 4-10.444 2.386 0 5.777 3.522 5.777 6 0 2.48-3.39 6-5.777 6-.978 0-2.778-.7-4-1.556zm6.737-1.896c1.555-1.873 1.012-4.536-1.21-5.935-3.465-2.182-7.367 2.735-4.71 5.935a3.837 3.837 0 0 0 5.92 0zM6.065 21.104c-1.339-.535-3.026-.746-3.75-.468-1.477.567-1.817-1.004-.406-1.876 1.243-.768 11.318 1.883 10.45 2.75-.93.93-3.336.776-6.294-.406zm0-5c-1.339-.535-3.012-.751-3.718-.48-.705.27-1.529.094-1.83-.392-.3-.487.248-1.119 1.218-1.404 2.188-.645 11.583 1.724 10.627 2.68-.933.933-3.337.779-6.297-.404zm-.815-4.232c-5.283-1.308-5.711-3.208-.5-2.217 2.063.393 4.425.81 5.25.927 1.895.27 2.548 2.084.803 2.232-.717.06-3.215-.363-5.553-.942z" fill="#5d6b82"/></svg>
