
<svg xmlns="http://www.w3.org/2000/svg" height="48" width="48"><path d="M3.765 35.63c-.544-1.397-.796-5.354-.56-8.794.234-3.44.066-6.477-.375-6.75-1.088-.672-1.025-8.698.069-8.698.479 0 1.03 1.766 1.224 3.925l.353 3.925.162-3.925c.088-2.159.553-3.925 1.031-3.925.479 0 1.03 1.766 1.224 3.925l.354 3.925.161-3.925c.089-2.159.577-3.925 1.085-3.925 1.13 0 1.242 8.006.122 8.698-.441.273-.61 3.31-.374 6.75.428 6.262-.7 11.333-2.519 11.333-.533 0-1.414-1.142-1.957-2.54zm2.88-6.695c0-3.079-.41-5.541-.923-5.541-.513 0-.923 2.462-.923 5.54 0 3.079.41 5.542.923 5.542.513 0 .924-2.463.924-5.541zm11.288 7.7c-9.412-4.639-11.305-15.994-3.9-23.4 3.962-3.961 8.057-5.217 13.614-4.175 4.42.83 10.074 6.588 10.925 11.128 2.255 12.017-9.928 21.727-20.639 16.448zm12.501-2.154c8.712-5.312 8.712-16.862 0-22.174-5.872-3.58-13.49-1.451-17.329 4.845-6.581 10.795 6.534 23.91 17.33 17.329zm-12.337-4.992c-1.99-1.991-3.14-4.036-3.14-5.587 0-9.616 12.115-13.29 16.932-5.135 2.405 4.07 1.94 7.18-1.602 10.722-4.26 4.26-7.93 4.26-12.19 0zm11.216-.974c3-3 3-7.244 0-10.243-4.58-4.58-12.509-1.334-12.509 5.122 0 1.799.838 3.692 2.267 5.12 1.429 1.43 3.322 2.268 5.121 2.268 1.8 0 3.692-.838 5.121-2.267zm11.502-4.198c0-11.455.23-13.852 1.333-13.852.733 0 1.99.935 2.792 2.078 1.219 1.735 1.359 3.826.853 12.698-.603 10.567-1.28 12.928-3.706 12.928-1.024 0-1.272-2.702-1.272-13.852zm2.805-10.493c-.662-.662-.917 2.743-.827 11.001l.131 11.96.827-11.002c.559-7.44.516-11.312-.131-11.96z" fill="#5d6b82"/></svg>
