
<svg xmlns="http://www.w3.org/2000/svg" height="48" width="48"><path d="M2.593 45.5V43h40.042l-.271-20.25C42.105 3.4 42.006 2.5 40.134 2.5c-1.413 0-2.147.92-2.634 3.3-.962 4.705-1.557 4.91-4.917 1.69-3.582-3.432-3.692-4.167-.74-4.958A268.021 268.021 0 0 0 37.811.816c6.695-2.007 6.782-1.695 6.782 24.306V48h-42v-2.5zm30.75-.246c-5.362-.18-14.137-.18-19.5 0-5.362.18-.975.327 9.75.327s15.113-.147 9.75-.327zm1.791-40.187C34.772 4.48 33.997 4 33.412 4c-.663 0-.587.574.201 1.524 1.372 1.653 2.598 1.284 1.521-.457zM30.594 13c.588-1.1 1.52-2 2.07-2 .643 0 .618.714-.07 2-.59 1.1-1.521 2-2.071 2-.643 0-.618-.714.07-2zm-5-.76c0-1.093 4.084-3.488 4.774-2.799.318.319-.288 1.236-1.348 2.038-2.146 1.623-3.427 1.908-3.427.762zm-1-4.133c0-1.11 3.076-2.364 3.863-1.576.318.318-.084.996-.893 1.508-1.87 1.183-2.97 1.208-2.97.068z" fill="#5d6b82"/></svg>
