
<svg xmlns="http://www.w3.org/2000/svg" height="48" width="48"><path d="M10.797 42.703c0-.833-.89-1.5-2-1.5-2.763 0-2.634-3.854.5-15 1.508-5.363 2.5-11.492 2.5-15.445 0-3.703.435-6.555 1-6.555.55 0 1 .675 1 1.5 0 1.234 1.777 1.5 10 1.5 8.222 0 10-.266 10-1.5 0-.825.45-1.5 1-1.5.565 0 1 2.852 1 6.555 0 3.953.992 10.082 2.5 15.445 3.133 11.146 3.262 15 .5 15-1.111 0-2 .667-2 1.5 0 .825-.45 1.5-1 1.5s-1-.675-1-1.5c0-1.242-1.89-1.5-11-1.5-9.112 0-11 .258-11 1.5 0 .825-.45 1.5-1 1.5s-1-.675-1-1.5zm28-5c0-1.266-2.334-1.5-15-1.5-12.667 0-15 .234-15 1.5 0 1.267 2.333 1.5 15 1.5 12.666 0 15-.233 15-1.5zm-1.799-9l-1.53-5.5H12.125l-1.531 5.5-1.531 5.5h29.465l-1.53-5.5zm-18.201-8.229c-.825-.314-1.792-1.019-2.15-1.566-.781-1.2-3.85-.192-3.85 1.264 0 .567 1.687.996 3.75.952 2.062-.043 3.075-.335 2.25-.65zm16-.302c0-1.456-3.07-2.464-3.851-1.264-.357.547-1.324 1.252-2.15 1.566-.824.315.188.607 2.25.65 2.063.044 3.75-.385 3.75-.952zm-6.5-3.969c0-2.227-.465-2.533-4.26-2.808-3.136-.226-4.416.103-4.857 1.25-1.24 3.232.383 4.69 4.857 4.366 3.795-.274 4.26-.58 4.26-2.808zm-11.5-1.954c0-1.442.917-2.127 3.5-2.612 5.391-1.011 10.5.26 10.5 2.612 0 1.075.675 1.954 1.5 1.954 1.047 0 1.5-1.055 1.5-3.5v-3.5h-20v3.5c0 2.445.452 3.5 1.5 3.5.825 0 1.5-.88 1.5-1.954z" fill="#5d6b82"/></svg>
