
<svg xmlns="http://www.w3.org/2000/svg" height="48" width="48"><path d="M3 43.417c0-1.766 2.153-1.459 2.77.395C5.99 44.466 5.455 45 4.584 45 3.713 45 3 44.287 3 43.417zM8 44c0-.55.9-1 2-1s2 .45 2 1-.9 1-2 1-2-.45-2-1zm7 0c0-.55.9-1 2-1s2 .45 2 1-.9 1-2 1-2-.45-2-1zm7 0c0-.55.9-1 2-1s2 .45 2 1-.9 1-2 1-2-.45-2-1zm7 0c0-.55.9-1 2-1s2 .45 2 1-.9 1-2 1-2-.45-2-1zm7 0c0-.55.9-1 2-1s2 .45 2 1-.9 1-2 1-2-.45-2-1zm6.23-.188c.617-1.854 2.77-2.161 2.77-.395 0 .87-.713 1.583-1.583 1.583-.871 0-1.406-.534-1.188-1.188zM3 38c0-1.1.45-2 1-2s1 .9 1 2-.45 2-1 2-1-.9-1-2zm40 0c0-1.1.45-2 1-2s1 .9 1 2-.45 2-1 2-1-.9-1-2zM3 31c0-1.1.45-2 1-2s1 .9 1 2-.45 2-1 2-1-.9-1-2zm40 0c0-1.1.45-2 1-2s1 .9 1 2-.45 2-1 2-1-.9-1-2zM3 24c0-1.1.45-2 1-2s1 .9 1 2-.45 2-1 2-1-.9-1-2zm40 0c0-1.1.45-2 1-2s1 .9 1 2-.45 2-1 2-1-.9-1-2zM3 17c0-1.1.45-2 1-2s1 .9 1 2-.45 2-1 2-1-.9-1-2zm40 0c0-1.1.45-2 1-2s1 .9 1 2-.45 2-1 2-1-.9-1-2zM3 10c0-1.1.45-2 1-2s1 .9 1 2-.45 2-1 2-1-.9-1-2zm40 0c0-1.1.45-2 1-2s1 .9 1 2-.45 2-1 2-1-.9-1-2zM3 4.583C3 3.713 3.712 3 4.583 3s1.406.534 1.188 1.187C5.153 6.042 3 6.35 3 4.583zm39.667.75C41.516 4.183 41.938 3 43.5 3c.825 0 1.5.675 1.5 1.5 0 1.562-1.183 1.984-2.333.833zM8 4c0-.55.9-1 2-1s2 .45 2 1-.9 1-2 1-2-.45-2-1zm7 0c0-.55.9-1 2-1s2 .45 2 1-.9 1-2 1-2-.45-2-1zm7 0c0-.55.9-1 2-1s2 .45 2 1-.9 1-2 1-2-.45-2-1zm7 0c0-.55.9-1 2-1s2 .45 2 1-.9 1-2 1-2-.45-2-1zm7 0c0-.55.9-1 2-1s2 .45 2 1-.9 1-2 1-2-.45-2-1z" fill="#5d6b82"/></svg>
