
<svg xmlns="http://www.w3.org/2000/svg" height="48" width="48"><path d="M11.147 39.582c0-6.321-.132-6.712-3.263-9.665-6.26-5.904-5.688-6.12 16.313-6.12 18.137 0 19.575.122 19.575 1.658 0 1.911-2.357 5.549-5.098 7.867-1.842 1.558-5.068 2.83-9.816 3.869-1.543.337-3.112 1.94-4.642 4.744l-2.31 4.234h-10.76v-6.587zm11.969.617c1.787-3.369 2.784-4.22 5.548-4.739 6.302-1.182 13.244-5.938 13.244-9.073 0-.399-8.075-.707-17.944-.686L6.02 25.74l3.495 3.09c3.379 2.985 3.496 3.296 3.496 9.282v6.193h3.963c3.734 0 4.09-.238 6.142-4.106zM5.74 21.747c-1.517-1.518-1.517-17.685 0-19.202 1.45-1.45 9.363-1.45 10.813 0 1.518 1.517 1.518 17.684 0 19.202-1.45 1.45-9.363 1.45-10.813 0zm10.067-9.601V3.29H6.486v17.711h9.321v-8.855zM9.282 7.004c-1.243-.815-1.243-1.02 0-1.834 1.746-1.145 3.263-.718 3.263.917s-1.517 2.061-3.263.917zm9.322 13.531v-2.33h10.781c10.888 0 14.387.801 14.387 3.295 0 1.132-2.154 1.366-12.584 1.366H18.604v-2.33zm17.478-.223c-2.948-.185-7.772-.185-10.72 0-2.948.185-.536.337 5.36.337 5.896 0 8.308-.152 5.36-.337z" fill="#5d6b82"/></svg>
