
<svg xmlns="http://www.w3.org/2000/svg" height="48" width="48"><path d="M6.966 43.672c-.727-.876-.95-4.83-.753-13.307.255-10.908.468-12.311 2.224-14.683 2.023-2.733 2.552-5.282 1.095-5.282-1.243 0-.42-5.255.961-6.13 1.518-.961 5.157-.961 6.675 0 1.38.875 2.204 6.13.96 6.13-1.456 0-.927 2.549 1.096 5.282 1.756 2.372 1.969 3.775 2.224 14.683.198 8.477-.026 12.431-.753 13.307-.716.862-2.835 1.247-6.864 1.247-4.03 0-6.15-.385-6.865-1.247zM19.72 30.747c-.258-11.517-.424-12.6-2.22-14.51-1.069-1.136-1.943-2.914-1.943-3.951 0-1.31-.526-1.886-1.725-1.886-1.2 0-1.726.575-1.726 1.886 0 1.037-.874 2.815-1.942 3.95-1.797 1.91-1.963 2.994-2.221 14.51l-.28 12.447H20l-.28-12.446zM16.851 6.948c0-1.519-4.517-2.3-5.812-1.006-1.451 1.451.225 2.843 3.088 2.565 1.728-.168 2.724-.738 2.724-1.559zM25.97 32.734c-.343-6.92-1.194-15.809-1.891-19.753-1.988-11.23-2.773-10.277 8.463-10.277 11.237 0 10.451-.954 8.464 10.277-.698 3.944-1.549 12.832-1.891 19.753l-.623 12.582h-11.9l-.622-12.582zm9.014 10.17c-1.343-.203-3.54-.203-4.883 0-1.343.204-.244.37 2.441.37 2.686 0 3.784-.166 2.442-.37zm1.997-3.58c0-.74-1.48-1.11-4.439-1.11s-4.438.37-4.438 1.11c0 .74 1.48 1.11 4.438 1.11 2.96 0 4.439-.37 4.439-1.11zm.01-3.551c.047-3.464 2.033-22.718 2.61-25.3l.742-3.33H24.742l.742 3.33c.576 2.582 2.563 21.836 2.61 25.3.006.366 2.007.665 4.448.665 2.442 0 4.443-.3 4.448-.665zm-.232-31.058c-2.32-.183-6.114-.183-8.433 0-2.32.183-.422.333 4.216.333 4.639 0 6.536-.15 4.217-.333z" fill="#5d6b82"/></svg>
