
<svg xmlns="http://www.w3.org/2000/svg" height="48" width="48"><path d="M20.997 41.003c-3.395-3.394.597-9.049 4.8-6.8 3.53 1.89 2.002 8-2 8-.88 0-2.14-.54-2.8-1.2zm4.464-2.367c.833-2.172-1.283-4.214-2.797-2.7-1.28 1.28-.487 4.267 1.133 4.267.584 0 1.333-.705 1.664-1.567zM15.285 31.19c-2.286-2.525-.783-4.519 4.63-6.14 4.377-1.312 10.676-.004 12.901 2.677 1.026 1.236.933 1.872-.508 3.463-1.587 1.755-1.974 1.803-3.86.482-1.153-.808-3.246-1.469-4.651-1.469-1.406 0-3.499.661-4.652 1.469-1.886 1.32-2.273 1.273-3.86-.482zm8.512-2.387c1.925 0 4.287.363 5.25.807 1.002.463 1.75.403 1.75-.14 0-1.185-4.46-3.267-7-3.267-2.541 0-7 2.082-7 3.268 0 .542.747.602 1.75.14.962-.445 3.325-.808 5.25-.808zM8.444 24.366c-1.553-1.716-1.547-1.94.095-3.38 6.457-5.662 18.236-7.062 25.825-3.069 5.876 3.092 6.872 4.578 4.505 6.72-1.832 1.659-2.066 1.631-5.08-.597-4.495-3.324-15.425-3.371-19.868-.087-3.661 2.707-3.418 2.689-5.478.413zm6.853-3.163c2.23-1.137 5.897-2 8.5-2 2.602 0 6.269.863 8.5 2 4.95 2.525 6.704 2.52 3.67-.008-2.545-2.12-8.231-3.98-12.17-3.98-3.94 0-9.626 1.86-12.17 3.98-3.034 2.529-1.282 2.533 3.67.008zM2.17 18.064c-1.832-2.024-1.813-2.1 1.131-4.458 6.4-5.128 11.441-6.801 20.495-6.801 9.053 0 14.095 1.673 20.494 6.8 2.944 2.36 2.963 2.435 1.131 4.46l-1.863 2.059-3.185-2.43c-5.027-3.834-10.03-5.49-16.577-5.49-6.549 0-11.55 1.656-16.578 5.49l-3.185 2.43-1.863-2.06zm21.626-7.86c5.874 0 7.805.495 13.498 3.462 7.896 4.116 8.285 2.37.436-1.963-7.96-4.394-19.908-4.394-27.87 0-7.847 4.333-7.459 6.08.437 1.963 5.694-2.967 7.624-3.463 13.499-3.463z" fill="#5d6b82"/></svg>
