<svg xmlns="http://www.w3.org/2000/svg" viewBox="0 0 463.658 94.695" height="101.008" width="494.568"><path d="M8.124 93.48c-7.862-4.04-6.762-14.589 1.933-18.537 7.231-3.283 12.514-2.174 21.673 4.549l4.773 3.504 3.437-4.248c1.89-2.336 4.962-6.489 6.825-9.228 3.279-4.82 29.976-56.047 29.976-57.519 0-1.232-11.468-5.952-17.02-7.005-12.016-2.278-26.895-.454-37.643 4.617C1.933 19.115-5.197 43.13 10.068 50.062c7.73 3.51 16.499 1.498 22.005-5.045 3.17-3.768 4.659-3.459 2.106.437-5.02 7.66-18.856 10.566-26.815 5.63-10.732-6.655-9.574-23.4 2.429-35.123C18.359 7.595 34.086 2 49.038 2c7.518 0 20.223 3.04 25.797 6.173l3.944 2.217 1.688-2.445C83.342 3.778 87.51 0 89.23 0c1.063 0-.148 1.745-3.423 4.935-2.786 2.714-5.066 5.319-5.066 5.788 0 .47 2.15 3.143 4.777 5.941 17.12 18.235 15.576 47.851-3.407 65.349-7.286 6.716-14.264 9.424-24.37 9.458-7.501.026-9.285-.343-15.175-3.133-6.343-3.005-6.754-3.075-8.272-1.397-5.614 6.203-19.885 9.77-26.17 6.54zm18.189-3.335c2.16-1.142 5-2.926 6.31-3.965l2.381-1.887-4.782-3.651c-5.722-4.37-11.036-6.136-15.784-5.245C5.135 77.142 1.377 87.455 8.56 91.529c3.587 2.034 12.622 1.33 17.754-1.384zm45.58-3.607C78.758 83.117 86.816 75.196 90.1 68.64c9.038-18.032 6.954-36.338-5.717-50.22-3.997-4.38-4.657-4.756-6.002-3.421-.83.825-6.107 10.5-11.725 21.5-11.964 23.427-18.603 34.81-24.578 42.146l-4.324 5.31 3.15 1.628c7.137 3.691 10.346 4.407 17.99 4.013 5.723-.295 9.001-1.067 13-3.06zm227.848 3.59c0-1.666 3.979-18.336 5.583-23.392.587-1.848.277-1.916-5.61-1.233-4.326.502-6.03.397-5.572-.344.363-.586 3.391-1.376 6.73-1.753 5.529-.626 6.16-.944 7.074-3.565 1.778-5.102 8.587-18.612 12.321-24.45 2.827-4.419 3.337-5.862 2.302-6.518-.73-.463-1.732-.85-2.225-.858-.494-.008-9.269-4.016-19.5-8.905-20.622-9.855-29.425-12.961-39.103-13.796-16.356-1.411-28 6.057-28 17.958 0 4.547 4.402 13.036 8.298 16.002 7.938 6.044 19.917 9.52 28.411 8.247 2.763-.414 4.29-.266 4.29.418 0 1.004-5.222 1.45-13 1.11-22.782-.996-38.073-24-25.328-38.107 5.015-5.551 10.809-7.46 22.329-7.357 11.798.107 18.778 2.333 42 13.394 9.075 4.324 18.22 8.563 20.325 9.421l3.825 1.56 6.41-6.41c7.556-7.556 16.571-12.398 24.629-13.23 10.417-1.075 16.71 3.07 15.385 10.134-1.861 9.923-23.093 17.095-39.32 13.283l-6.246-1.467-4.18 6.615c-2.299 3.638-6.107 10.665-8.463 15.615l-4.284 9 10.21.627c11.375.7 10.708.599 10.71 1.623 0 .412-4.837.75-10.75.75H308.24l-2.202 6.5c-1.212 3.575-2.762 9.762-3.445 13.75-.684 3.987-1.606 7.25-2.048 7.25-.443 0-.805-.842-.805-1.872zm52.2-60.251c6.965-1.476 11.945-4.072 15.174-7.91 3.173-3.77 3.348-7.004.518-9.562-3.315-2.996-14.743-2.628-21.911.706-5.134 2.388-17.981 13.06-17.981 14.938 0 2.429 15.752 3.618 24.2 1.828zM145.312 87.429c-.864-.865-1.571-2.922-1.571-4.572v-3l-3.304 3.503c-7.572 8.03-15.701 4.603-13.009-5.484.855-3.204.808-3.896-.24-3.494-.718.275-2.897.8-4.842 1.164-2.027.38-3.767 1.388-4.076 2.36-.296.933-2.233 3.352-4.305 5.374-9.756 9.528-18.046 2.468-12.072-10.28 1.16-2.475 2.487-6.75 2.95-9.5 1.434-8.541 7.121-10.956 13.132-5.577 3.086 2.761 3.26 3.284 3.173 9.5-.102 7.229.448 7.737 5.528 5.11 1.604-.83 4.258-3.978 6.11-7.25 4.5-7.953 4.884-5.136.465 3.429C127.656 79.558 127.521 86 132.89 86c3.133 0 10.1-7.956 14.668-16.75 2.356-4.538 4.678-8.25 5.158-8.25.48 0-.748 3.712-2.73 8.25-4.18 9.573-4.974 16.946-1.889 17.565 2.72.546 8.068-5.103 13.465-14.218 6.28-10.606 14.811-16.807 18.693-13.586 2.071 1.72 1.854 4.35-.59 7.128-2.223 2.529-2.246 2.292-.372-3.889.781-2.578-1.167-3.029-4.867-1.128-8.352 4.291-15.707 19.455-11.484 23.678 3.63 3.63 11.53-.407 20.45-10.453 3.768-4.243 8.513-9.39 10.546-11.439 4.319-4.353 9.25-5.89 11.544-3.596 3.892 3.892-3.48 11.453-12.115 12.427-4.837.545-6.625 2.768-6.625 8.237 0 9.606 11.204 7.16 22.001-4.802 6.62-7.335 8.13-7.351 2.238-.025C204.466 83.25 197.206 88 191.345 88c-3.148 0-6.604-4.319-6.604-8.251v-2.982l-3.955 3.573C175.97 84.69 169.703 88 166.28 88c-3.077 0-6.54-3.225-6.54-6.092 0-1.749-.73-1.339-4.462 2.5-4.688 4.824-7.355 5.632-9.966 3.02zm-35.6-2.914c2.566-1.327 7.029-6.36 7.029-7.927 0-.333-1.813-1.33-4.027-2.215-2.215-.887-4.676-2.538-5.47-3.67-1.39-1.987-1.513-1.903-3.45 2.369-2.273 5.01-2.632 9.949-.853 11.728 1.585 1.585 3.292 1.514 6.77-.285zm9.398-12.765c1.707-6.37-.646-13.28-4.885-14.343-3.354-.842-5.278.046-6.656 3.07-1.494 3.279-.55 4.141 2.33 2.125 2.403-1.683 5.842-2.16 5.842-.809 0 .436-1.425 1.224-3.166 1.75-4.534 1.371-5.753 3.782-3.292 6.516 3.796 4.221 8.913 5.101 9.827 1.691zm81.58-4.715c2.836-2.018 4.805-5.613 3.688-6.73-1.787-1.788-10.447 3.603-12.775 7.952-1.027 1.92-.876 2.007 2.532 1.454 1.993-.324 4.944-1.528 6.556-2.676zm133.061 20.478c-1.684-2.03-.686-5.307 3.518-11.555 1.95-2.9 3.724-5.557 3.94-5.906.215-.349-1.097-.46-2.915-.248-3.848.45-6.553-2.428-6.553-6.97 0-3.553 4.096-8.395 6.365-7.524 2.663 1.022 3.085 3.638 1.345 8.334-1.867 5.038-1.067 5.48 4.152 2.298 1.85-1.127 3.574-1.839 3.832-1.581.257.257-1.593 2.998-4.112 6.09-4.87 5.98-8.582 12.472-8.582 15.01 0 4.679 11.017-2.547 17.85-11.707 5.2-6.974 8.868-10.322 13.367-12.201 4.2-1.754 8.213-2.06 7.283-.553-.34.55-1.629 1-2.864 1-3.825 0-11.044 5.402-14.578 10.909-3.912 6.097-4.734 12.285-1.713 12.9 2.542.516 10.387-7.826 14.157-15.057 1.649-3.16 3.335-5.748 3.748-5.75 1.055-.003 1.123-.215-2.814 8.869-3.797 8.762-4.092 12.388-1.057 12.967 2.897.553 12.958-10.652 16.723-18.622 3.587-7.595 3.69-7.757 4.451-6.995.305.304-.595 3.382-2 6.839-3.241 7.977-3.204 8.351.285 2.886 3.322-5.205 8.731-10.675 11.389-11.518 2.029-.644 4.773 1.09 4.773 3.017 0 .66-2.025 5.36-4.5 10.446-4.81 9.882-5.432 12.814-2.922 13.777 2.56.983 6.453-2.706 14.422-13.665 5.69-7.826 8.636-10.94 12.211-12.909 3.729-2.053 5.085-2.364 6.5-1.492 2.591 1.597 2.7 4.7.26 7.479-2.113 2.407-2.12 2.408-1.547.169.316-1.238.853-3.15 1.192-4.25 1.23-3.99-5.818-1.603-10.807 3.66-5.407 5.705-8.498 16.252-5.61 19.14 4.423 4.423 16.632-3.61 25.323-16.662 5.216-7.833 13.488-12.24 16.395-8.737 3.421 4.122-3.812 11.382-12.292 12.338-4.837.545-6.625 2.768-6.625 8.237 0 9.606 11.204 7.16 22.001-4.802 6.62-7.335 8.13-7.351 2.238-.025C453.466 83.25 446.206 88 440.345 88c-2.976 0-6.604-4.251-6.604-7.738v-2.47l-3.528 3.098C425.702 84.851 419.53 88 416.28 88c-3.495 0-6.54-3.325-6.54-7.144v-3.144l-3.43 4.494c-3.525 4.615-8.388 7.461-11.022 6.45-3.348-1.284-2.86-5.363 1.852-15.44C402.066 62.676 402.51 61 400.375 61c-3.676 0-10.12 7.837-16.744 20.366-3.872 7.324-5.87 7.66-3.367.567l1.51-4.28-4.918 5.13c-5.707 5.952-9.69 7.505-11.833 4.614-.82-1.105-1.181-3.05-.867-4.657l.539-2.76-3.496 3.495c-6.13 6.129-11.458 5.495-11.458-1.362v-2.505l-3.25 3.045c-6.759 6.332-10.374 7.711-12.74 4.86zm115.94-20.478c2.835-2.018 4.804-5.613 3.687-6.73-1.787-1.788-10.447 3.603-12.775 7.952-1.027 1.92-.876 2.007 2.532 1.454 1.993-.324 4.944-1.528 6.556-2.676zm-111.915-4.641c.904-2.741.906-3.849.006-4.736-1.57-1.546-4.041 1.736-4.041 5.366 0 5.225 2.216 4.879 4.035-.63z" fill="#374266"/></svg>
