<svg xmlns="http://www.w3.org/2000/svg" width="30" height="30" viewBox="0 0 257.71679 257.71874"><path d="M14.22461-.00019C6.36761-.00019 0 6.36741 0 14.22441v229.26954c0 7.855 6.36661 14.2246 14.22461 14.2246H137.6543v-99.80273h-33.58399v-38.89453h33.58399V90.3377c0-33.287 20.33039-51.41407 50.02539-51.41407 14.224 0 26.44972 1.05921 30.01172 1.53321V75.2459l-20.5957.008c-16.148 0-19.2754 7.67455-19.2754 18.93555v24.83203h38.51563l-5.01563 38.89453h-33.5v99.80273h65.67383c7.854 0 14.22266-6.3686 14.22266-14.2246V14.2246C257.7168 6.3676 251.34914 0 243.49414 0H14.22461z" fill="#374266"/></svg>
